<svg width="64" height="64" viewBox="0 0 64 64" fill="none" xmlns="http://www.w3.org/2000/svg">
<path d="M0 8C0 3.58172 3.58172 0 8 0H56C60.4183 0 64 3.58172 64 8V56C64 60.4183 60.4183 64 56 64H8C3.58172 64 0 60.4183 0 56V8Z" fill="#F57E21"/>
<path d="M49.7156 24.0645L43.491 13.0645C43.1119 12.4194 42.4167 12 41.69 12H29.2724C28.5457 12 27.8506 12.4194 27.4714 13.0645L21.2468 24.0645C20.8676 24.7097 20.8676 25.5484 21.2468 26.1935L27.4714 37.1613C27.8506 37.8064 28.5457 38.2258 29.2724 38.2258H37.6456C37.772 38.2258 37.8668 38.2903 37.93 38.3871L38.088 38.7097C38.1512 38.8065 38.1512 38.9355 38.088 39.0323L32.9377 48.1613C32.8745 48.2581 32.7797 48.3226 32.6533 48.3226H22.3527C22.2263 48.3226 22.1315 48.2581 22.0683 48.1613L16.918 39.0323C16.8548 38.9355 16.8548 38.8065 16.918 38.7097L20.8992 31.7097C20.9624 31.6129 20.9624 31.4839 20.8992 31.3871L19.2562 28.4839C19.193 28.3548 19.0666 28.2903 18.9086 28.2903C18.7822 28.2903 18.6558 28.3548 18.5611 28.4839L13.2844 37.8064C12.9052 38.4516 12.9052 39.2903 13.2844 39.9355L19.509 50.9355C19.8881 51.5806 20.5833 52 21.31 52H33.7276C34.4543 52 35.1494 51.5806 35.5286 50.9355L41.7532 39.9355C42.1324 39.2903 42.1324 38.4516 41.7532 37.8064L35.5286 26.8065C35.1494 26.1613 34.4543 25.7419 33.7276 25.7419H25.3228C25.1964 25.7419 25.1016 25.6774 25.0384 25.5806L24.8804 25.2581C24.8173 25.1613 24.8173 25.0323 24.8804 24.9355L30.0623 15.8387C30.1255 15.7419 30.2203 15.6774 30.3467 15.6774H40.6789C40.8053 15.6774 40.9001 15.7419 40.9633 15.8387L46.1136 24.9677C46.1768 25.0645 46.1768 25.1935 46.1136 25.2903L42.7011 31.2581C42.6379 31.3548 42.6379 31.4839 42.7011 31.5806L44.3441 34.4839C44.4073 34.6129 44.5337 34.6774 44.6917 34.6774C44.8181 34.6774 44.9445 34.6129 45.0393 34.4839L49.7156 26.1935C50.0948 25.5161 50.0948 24.7097 49.7156 24.0645ZM27.7874 29.4194H32.6849C32.8113 29.4194 32.9061 29.4839 32.9693 29.5806L35.497 34.0645C35.6234 34.2903 35.4654 34.5484 35.2126 34.5484H30.3151C30.1887 34.5484 30.0939 34.4839 30.0307 34.3871L27.503 29.9032C27.3766 29.6774 27.5346 29.4194 27.7874 29.4194Z" fill="white"/>
</svg>
