<svg width="256" height="256" viewBox="0 0 256 256" fill="none" xmlns="http://www.w3.org/2000/svg">
<rect width="256" height="256" rx="24" fill="white"/>
<path d="M213.632 89.9097L183.687 37.1097C181.863 34.0129 178.518 32 175.022 32H115.284C111.787 32 108.443 34.0129 106.619 37.1097L76.6738 89.9097C74.8497 93.0065 74.8497 97.0323 76.6738 100.129L106.619 152.774C108.443 155.871 111.787 157.884 115.284 157.884H155.565C156.173 157.884 156.629 158.194 156.933 158.658L157.693 160.206C157.997 160.671 157.997 161.29 157.693 161.755L132.916 205.574C132.612 206.039 132.156 206.348 131.548 206.348H81.994C81.386 206.348 80.93 206.039 80.626 205.574L55.8488 161.755C55.5448 161.29 55.5448 160.671 55.8488 160.206L75.0017 126.606C75.3057 126.142 75.3057 125.523 75.0017 125.058L67.0974 111.123C66.7933 110.503 66.1853 110.194 65.4253 110.194C64.8173 110.194 64.2092 110.503 63.7532 111.123L38.3681 155.871C36.544 158.968 36.544 162.994 38.3681 166.09L68.3134 218.89C70.1375 221.987 73.4816 224 76.9778 224H136.716C140.213 224 143.557 221.987 145.381 218.89L175.326 166.09C177.15 162.994 177.15 158.968 175.326 155.871L145.381 103.071C143.557 99.9742 140.213 97.9613 136.716 97.9613H96.2827C95.6746 97.9613 95.2186 97.6516 94.9146 97.1871L94.1546 95.6387C93.8506 95.1742 93.8506 94.5548 94.1546 94.0903L119.084 50.4258C119.388 49.9613 119.844 49.6516 120.452 49.6516H170.158C170.766 49.6516 171.222 49.9613 171.526 50.4258L196.303 94.2452C196.607 94.7097 196.607 95.329 196.303 95.7935L179.886 124.439C179.582 124.903 179.582 125.523 179.886 125.987L187.791 139.923C188.095 140.542 188.703 140.852 189.463 140.852C190.071 140.852 190.679 140.542 191.135 139.923L213.632 100.129C215.456 96.8774 215.456 93.0065 213.632 89.9097ZM108.139 115.613H131.7C132.308 115.613 132.764 115.923 133.068 116.387L145.229 137.91C145.837 138.994 145.077 140.232 143.861 140.232H120.3C119.692 140.232 119.236 139.923 118.932 139.458L106.771 117.935C106.163 116.852 106.923 115.613 108.139 115.613Z" fill="#F57E21"/>
</svg>
