<svg width="120" height="120" viewBox="0 0 120 120" fill="none" xmlns="http://www.w3.org/2000/svg">
<path d="M0 32C0 16.9151 0 9.37258 4.68629 4.68629C9.37258 0 16.9151 0 32 0H88C103.085 0 110.627 0 115.314 4.68629C120 9.37258 120 16.9151 120 32V88C120 103.085 120 110.627 115.314 115.314C110.627 120 103.085 120 88 120H32C16.9151 120 9.37258 120 4.68629 115.314C0 110.627 0 103.085 0 88V32Z" fill="#9668FC"/>
<g filter="url(#filter0_d_548_2254)">
<path d="M53.3445 46.4545C53.3445 47.8188 52.8897 49.0921 52.1621 50.0926L46.7048 57.278L26.9678 26.6265H42.5209L52.5259 43.2711C53.0716 44.2716 53.3445 45.363 53.3445 46.4545Z" fill="white"/>
</g>
<g filter="url(#filter1_d_548_2254)">
<path d="M92.7267 94.1146H77.1735L67.4414 77.8338C66.8047 76.8333 66.4409 75.5599 66.4409 74.3775C66.4409 72.8313 66.8957 71.376 67.8052 70.1936L72.9896 63.3721L92.7267 94.1146Z" fill="white"/>
</g>
<g filter="url(#filter2_d_548_2254)">
<path d="M93 26.6265L42.4294 94.1145H26.6943L77.3559 26.6265H93Z" fill="white"/>
</g>
<defs>
<filter id="filter0_d_548_2254" x="20.652" y="22.4159" width="39.0085" height="43.2829" filterUnits="userSpaceOnUse" color-interpolation-filters="sRGB">
<feFlood flood-opacity="0" result="BackgroundImageFix"/>
<feColorMatrix in="SourceAlpha" type="matrix" values="0 0 0 0 0 0 0 0 0 0 0 0 0 0 0 0 0 0 127 0" result="hardAlpha"/>
<feOffset dy="2.10526"/>
<feGaussianBlur stdDeviation="3.15789"/>
<feComposite in2="hardAlpha" operator="out"/>
<feColorMatrix type="matrix" values="0 0 0 0 0.266667 0 0 0 0 0.266667 0 0 0 0 0.266667 0 0 0 0.25 0"/>
<feBlend mode="normal" in2="BackgroundImageFix" result="effect1_dropShadow_548_2254"/>
<feBlend mode="normal" in="SourceGraphic" in2="effect1_dropShadow_548_2254" result="shape"/>
</filter>
<filter id="filter1_d_548_2254" x="60.1251" y="59.1615" width="38.9172" height="43.3743" filterUnits="userSpaceOnUse" color-interpolation-filters="sRGB">
<feFlood flood-opacity="0" result="BackgroundImageFix"/>
<feColorMatrix in="SourceAlpha" type="matrix" values="0 0 0 0 0 0 0 0 0 0 0 0 0 0 0 0 0 0 127 0" result="hardAlpha"/>
<feOffset dy="2.10526"/>
<feGaussianBlur stdDeviation="3.15789"/>
<feComposite in2="hardAlpha" operator="out"/>
<feColorMatrix type="matrix" values="0 0 0 0 0.266667 0 0 0 0 0.266667 0 0 0 0 0.266667 0 0 0 0.25 0"/>
<feBlend mode="normal" in2="BackgroundImageFix" result="effect1_dropShadow_548_2254"/>
<feBlend mode="normal" in="SourceGraphic" in2="effect1_dropShadow_548_2254" result="shape"/>
</filter>
<filter id="filter2_d_548_2254" x="20.3785" y="22.4159" width="78.9372" height="80.1194" filterUnits="userSpaceOnUse" color-interpolation-filters="sRGB">
<feFlood flood-opacity="0" result="BackgroundImageFix"/>
<feColorMatrix in="SourceAlpha" type="matrix" values="0 0 0 0 0 0 0 0 0 0 0 0 0 0 0 0 0 0 127 0" result="hardAlpha"/>
<feOffset dy="2.10526"/>
<feGaussianBlur stdDeviation="3.15789"/>
<feComposite in2="hardAlpha" operator="out"/>
<feColorMatrix type="matrix" values="0 0 0 0 0.266667 0 0 0 0 0.266667 0 0 0 0 0.266667 0 0 0 0.25 0"/>
<feBlend mode="normal" in2="BackgroundImageFix" result="effect1_dropShadow_548_2254"/>
<feBlend mode="normal" in="SourceGraphic" in2="effect1_dropShadow_548_2254" result="shape"/>
</filter>
</defs>
</svg>
