<svg width="398" height="60" viewBox="0 0 398 60" fill="none" xmlns="http://www.w3.org/2000/svg">
<path d="M151.595 17.3622C151.595 18.248 151.299 19.0748 150.827 19.7244L147.284 24.3897L134.469 4.48816H144.567L151.063 15.2952C151.418 15.9449 151.595 16.6535 151.595 17.3622Z" fill="white"/>
<path d="M177.166 48.3071H167.067L160.748 37.7362C160.335 37.0866 160.099 36.2598 160.099 35.4921C160.099 34.4882 160.394 33.5433 160.984 32.7756L164.351 28.3464L177.166 48.3071Z" fill="white"/>
<path d="M177.343 4.4881L144.508 48.307H134.292L167.185 4.4881H177.343Z" fill="white"/>
<path d="M0 35.5513V13.2285H8.6811V34.0159C8.6811 39.0946 10.4528 41.9883 14.4094 41.9883C19.311 41.9883 22.0866 37.6773 22.0866 32.1261V13.2285H30.7677V48.2481H22.9134V42.9922H21.5551C20.374 46.5946 17.3032 49.134 11.811 49.134C3.83858 49.193 0 43.819 0 35.5513Z" fill="white"/>
<path d="M36.7915 48.307V13.2282H44.7639V18.4841H46.1813C47.5396 14.8818 50.3151 12.3424 55.8663 12.3424C63.7206 12.3424 67.5592 17.6574 67.5592 25.9251V48.2479H58.8781V27.5196C58.8781 22.3818 57.1065 19.5471 53.0907 19.5471C48.2482 19.5471 45.4726 23.7991 45.4726 29.4093V48.307H36.7915Z" fill="white"/>
<path d="M72.8149 4.48819C72.8149 1.83071 74.4685 0 77.5394 0C80.6693 0 82.3228 1.83071 82.3228 4.48819C82.3228 7.14567 80.6693 8.97638 77.5394 8.97638C74.4685 8.97638 72.8149 7.20472 72.8149 4.48819ZM73.2283 48.3071V13.2283H81.9094V48.248H73.2283V48.3071Z" fill="white"/>
<path d="M89.9411 48.3072V19.4292H84.9805V13.2284H89.9411V11.0434C89.9411 5.256 92.7167 1.41742 101.043 1.41742C102.106 1.41742 103.169 1.47647 104.114 1.59458V7.67726C103.524 7.55915 102.756 7.5001 102.106 7.5001C99.2718 7.5001 98.386 8.74025 98.386 11.3387V13.2284H104.114V19.4292H98.386V48.3072H89.9411Z" fill="white"/>
<path d="M107.835 60.0001V59.8229C109.902 56.5749 112.323 51.9686 114.213 47.8348L101.988 13.5828V13.2285H110.551L114.921 25.5119C115.984 28.5237 117.047 31.5946 118.051 36.7915H119.469C120.591 31.5946 121.654 28.5828 122.658 25.5119L127.028 13.2285H135.118V13.5828L124.016 43.8781C121.358 51.3781 118.583 56.9292 116.752 59.9411H107.835V60.0001Z" fill="white"/>
<rect x="188" y="4" width="210" height="46" rx="8" fill="#8946FD"/>
<path d="M201.36 34V20H206.14C207.78 20 209.127 20.2933 210.18 20.88C211.247 21.4533 212.033 22.2667 212.54 23.32C213.06 24.36 213.32 25.5867 213.32 27C213.32 28.4133 213.06 29.6467 212.54 30.7C212.033 31.74 211.247 32.5533 210.18 33.14C209.127 33.7133 207.78 34 206.14 34H201.36ZM203.92 31.8H206.02C207.193 31.8 208.12 31.6133 208.8 31.24C209.48 30.8533 209.967 30.3067 210.26 29.6C210.553 28.88 210.7 28.0133 210.7 27C210.7 26 210.553 25.14 210.26 24.42C209.967 23.7 209.48 23.1467 208.8 22.76C208.12 22.3733 207.193 22.18 206.02 22.18H203.92V31.8ZM223.239 34.24C221.839 34.24 220.612 33.9333 219.559 33.32C218.519 32.7067 217.699 31.86 217.099 30.78C216.512 29.6867 216.219 28.4267 216.219 27C216.219 25.5733 216.512 24.32 217.099 23.24C217.699 22.1467 218.519 21.2933 219.559 20.68C220.612 20.0667 221.839 19.76 223.239 19.76C224.625 19.76 225.845 20.0667 226.899 20.68C227.952 21.2933 228.772 22.1467 229.359 23.24C229.945 24.32 230.239 25.5733 230.239 27C230.239 28.4267 229.945 29.6867 229.359 30.78C228.772 31.86 227.952 32.7067 226.899 33.32C225.845 33.9333 224.625 34.24 223.239 34.24ZM223.239 31.94C224.572 31.94 225.632 31.5 226.419 30.62C227.219 29.74 227.619 28.5333 227.619 27C227.619 25.4667 227.219 24.26 226.419 23.38C225.632 22.5 224.572 22.06 223.239 22.06C221.905 22.06 220.839 22.5 220.039 23.38C219.239 24.26 218.839 25.4667 218.839 27C218.839 28.5333 219.239 29.74 220.039 30.62C220.839 31.5 221.905 31.94 223.239 31.94ZM239.939 34.24C238.526 34.24 237.312 33.94 236.299 33.34C235.286 32.7267 234.506 31.88 233.959 30.8C233.412 29.7067 233.139 28.4467 233.139 27.02C233.139 25.5933 233.412 24.3333 233.959 23.24C234.506 22.1467 235.286 21.2933 236.299 20.68C237.312 20.0667 238.526 19.76 239.939 19.76C241.619 19.76 242.992 20.18 244.059 21.02C245.139 21.8467 245.812 23.0133 246.079 24.52H243.259C243.086 23.76 242.712 23.1667 242.139 22.74C241.579 22.3 240.832 22.08 239.899 22.08C238.606 22.08 237.592 22.52 236.859 23.4C236.126 24.28 235.759 25.4867 235.759 27.02C235.759 28.5533 236.126 29.76 236.859 30.64C237.592 31.5067 238.606 31.94 239.899 31.94C240.832 31.94 241.579 31.74 242.139 31.34C242.712 30.9267 243.086 30.36 243.259 29.64H246.079C245.812 31.08 245.139 32.2067 244.059 33.02C242.992 33.8333 241.619 34.24 239.939 34.24ZM254.845 34.24C253.818 34.24 252.892 34.04 252.065 33.64C251.238 33.2267 250.578 32.6067 250.085 31.78C249.605 30.9533 249.365 29.9067 249.365 28.64V20H251.925V28.66C251.925 29.7533 252.185 30.5667 252.705 31.1C253.238 31.6333 253.972 31.9 254.905 31.9C255.825 31.9 256.552 31.6333 257.085 31.1C257.618 30.5667 257.885 29.7533 257.885 28.66V20H260.445V28.64C260.445 29.9067 260.192 30.9533 259.685 31.78C259.178 32.6067 258.498 33.2267 257.645 33.64C256.805 34.04 255.872 34.24 254.845 34.24ZM264.158 34V20H267.198L271.658 28.88L276.058 20H279.098V34H276.538V24.34L272.638 32H270.618L266.718 24.34V34H264.158ZM282.915 34V20H292.055V22.06H285.475V25.9H291.455V27.9H285.475V31.94H292.055V34H282.915ZM295.577 34V20H298.137L304.717 29.86V20H307.277V34H304.717L298.137 24.16V34H295.577ZM314.351 34V22.06H310.271V20H321.011V22.06H316.911V34H314.351ZM321.623 34L326.743 20H329.623L334.743 34H332.023L330.903 30.76H325.443L324.303 34H321.623ZM326.143 28.76H330.203L328.163 22.94L326.143 28.76ZM339.422 34V22.06H335.342V20H346.082V22.06H341.982V34H339.422ZM349.079 34V20H351.639V34H349.079ZM362.012 34.24C360.612 34.24 359.386 33.9333 358.332 33.32C357.292 32.7067 356.472 31.86 355.872 30.78C355.286 29.6867 354.992 28.4267 354.992 27C354.992 25.5733 355.286 24.32 355.872 23.24C356.472 22.1467 357.292 21.2933 358.332 20.68C359.386 20.0667 360.612 19.76 362.012 19.76C363.399 19.76 364.619 20.0667 365.672 20.68C366.726 21.2933 367.546 22.1467 368.132 23.24C368.719 24.32 369.012 25.5733 369.012 27C369.012 28.4267 368.719 29.6867 368.132 30.78C367.546 31.86 366.726 32.7067 365.672 33.32C364.619 33.9333 363.399 34.24 362.012 34.24ZM362.012 31.94C363.346 31.94 364.406 31.5 365.192 30.62C365.992 29.74 366.392 28.5333 366.392 27C366.392 25.4667 365.992 24.26 365.192 23.38C364.406 22.5 363.346 22.06 362.012 22.06C360.679 22.06 359.612 22.5 358.812 23.38C358.012 24.26 357.612 25.4667 357.612 27C357.612 28.5333 358.012 29.74 358.812 30.62C359.612 31.5 360.679 31.94 362.012 31.94ZM372.372 34V20H374.932L381.512 29.86V20H384.072V34H381.512L374.932 24.16V34H372.372Z" fill="white"/>
</svg>
