<svg width="421" height="48" viewBox="0 0 421 48" fill="none" xmlns="http://www.w3.org/2000/svg">
<g clip-path="url(#clip0_948_417)">
<path d="M44.5994 14.4891L37.0382 1.27845C36.5776 0.503632 35.7332 0 34.8504 0H19.7665C18.8837 0 18.0393 0.503632 17.5787 1.27845L10.0176 14.4891C9.557 15.2639 9.557 16.2712 10.0176 17.046L17.5787 30.2179C18.0393 30.9927 18.8837 31.4964 19.7665 31.4964H29.9376C30.0911 31.4964 30.2063 31.5739 30.283 31.6901L30.4749 32.0775C30.5517 32.1937 30.5517 32.3487 30.4749 32.4649L24.2188 43.4286C24.142 43.5448 24.0268 43.6223 23.8733 43.6223H11.3609C11.2074 43.6223 11.0923 43.5448 11.0155 43.4286L4.75931 32.4649C4.68255 32.3487 4.68255 32.1937 4.75931 32.0775L9.59539 23.6707C9.67215 23.5545 9.67215 23.3995 9.59539 23.2833L7.59955 19.7966C7.52278 19.6416 7.36926 19.5642 7.17735 19.5642C7.02382 19.5642 6.8703 19.6416 6.75515 19.7966L0.345434 30.9927C-0.115145 31.7676 -0.115145 32.7748 0.345434 33.5496L7.9066 46.7603C8.36718 47.5351 9.21157 48.0387 10.0943 48.0387H25.1783C26.0611 48.0387 26.9055 47.5351 27.366 46.7603L34.9272 33.5496C35.3878 32.7748 35.3878 31.7676 34.9272 30.9927L27.366 17.7821C26.9055 17.0073 26.0611 16.5036 25.1783 16.5036H14.9688C14.8153 16.5036 14.7001 16.4261 14.6234 16.3099L14.4315 15.9225C14.3547 15.8063 14.3547 15.6513 14.4315 15.5351L20.726 4.61017C20.8028 4.49395 20.9179 4.41646 21.0715 4.41646H33.6222C33.7758 4.41646 33.8909 4.49395 33.9677 4.61017L40.2239 15.5739C40.3006 15.6901 40.3006 15.845 40.2239 15.9613L36.0787 23.1283C36.0019 23.2446 36.0019 23.3995 36.0787 23.5157L38.0745 27.0024C38.1513 27.1574 38.3048 27.2349 38.4967 27.2349C38.6502 27.2349 38.8037 27.1574 38.9189 27.0024L44.5994 17.046C45.0599 16.2324 45.0599 15.2639 44.5994 14.4891ZM17.9626 20.9201H23.9117C24.0652 20.9201 24.1804 20.9976 24.2571 21.1138L27.3277 26.4988C27.4812 26.77 27.2893 27.0799 26.9822 27.0799H21.0331C20.8796 27.0799 20.7644 27.0024 20.6877 26.8862L17.6171 21.5012C17.4636 21.23 17.6555 20.9201 17.9626 20.9201Z" fill="#F57E21"/>
<path d="M59.1846 8.48425H63.5217V20.3777H63.5984C64.9802 18.4407 67.3982 16.891 70.5455 16.891C76.3027 16.891 80.5247 21.4625 80.5247 28.2421C80.5247 35.0218 76.3027 39.5545 70.5455 39.5545C67.4366 39.5545 65.0186 38.0048 63.5984 36.0678H63.5217V39.1283H59.1846V8.48425ZM63.4449 28.2421C63.4449 32.3874 65.9397 35.4479 69.7011 35.4479C73.309 35.4479 75.9573 32.5036 75.9573 28.2421C75.9573 23.9419 73.309 21.0363 69.7011 21.0363C65.9397 21.0363 63.4449 24.0968 63.4449 28.2421Z" fill="#141312"/>
<path d="M82.5972 11.506C82.5972 9.84019 83.9021 8.48425 85.5909 8.48425C87.2797 8.48425 88.5847 9.84019 88.5847 11.506C88.5847 13.2106 87.2797 14.5278 85.5909 14.5278C83.9021 14.5278 82.5972 13.2106 82.5972 11.506ZM87.7787 17.3172V39.1283H83.4416V17.3172H87.7787Z" fill="#141312"/>
<path d="M96.2609 17.3172V20.1066H96.3377C97.5659 18.2857 100.022 16.9298 102.671 16.9298C106.777 16.9298 110.117 19.7192 110.117 25.8015V39.1284H105.78V26.4213C105.78 22.586 104.129 20.9589 101.634 20.9589C98.4487 20.9589 96.2609 23.3995 96.2609 26.77V39.1284H91.9238V17.3172H96.2609Z" fill="#141312"/>
<path d="M134.067 39.1283H129.73V36.339H129.653C128.195 38.1211 125.854 39.5157 122.706 39.5157C117.026 39.5157 112.727 35.0218 112.727 28.2034C112.727 21.385 116.987 16.8523 122.706 16.8523C125.815 16.8523 128.156 18.247 129.653 20.029H129.73V8.48425H134.067V39.1283ZM117.256 28.2421C117.256 32.5036 119.904 35.4479 123.512 35.4479C127.274 35.4479 129.768 32.3874 129.768 28.2421C129.768 24.0968 127.274 21.0363 123.512 21.0363C119.904 21.0363 117.256 23.9419 117.256 28.2421Z" fill="#141312"/>
<path d="M138.135 8.48425H141.398V20.8813H141.474C143.202 18.4019 145.85 17.1622 148.652 17.1622C154.524 17.1622 158.439 21.6174 158.439 28.3196C158.439 35.0218 154.524 39.5157 148.652 39.5157C145.85 39.5157 143.202 38.276 141.474 35.7966H141.398V39.0896H138.135V8.48425ZM141.321 28.3583C141.321 32.6973 143.624 36.3777 148.153 36.3777C152.26 36.3777 154.985 33.1622 154.985 28.3583C154.985 23.5545 152.221 20.339 148.153 20.339C143.624 20.339 141.321 24.0581 141.321 28.3583Z" fill="#141312"/>
<path d="M176.632 32.4261L180.086 32.9297C179.05 36.9588 175.557 39.5544 170.76 39.5544C164.388 39.5544 160.32 34.6731 160.32 28.397C160.32 22.121 164.465 17.1234 170.644 17.2397C177.361 17.3171 180.816 22.2372 180.816 29.443H163.813C164.235 33.2009 166.461 36.5326 170.798 36.5326C174.06 36.4552 175.979 34.4019 176.632 32.4261ZM163.928 26.4987H177.054C176.67 23.8644 174.598 20.2614 170.491 20.2614C166.422 20.2227 164.312 23.8256 163.928 26.4987Z" fill="#141312"/>
<path d="M198.817 32.4261L202.271 32.9297C201.235 36.9588 197.742 39.5544 192.944 39.5544C186.573 39.5544 182.504 34.6731 182.504 28.397C182.504 22.121 186.65 17.1234 192.829 17.2397C199.546 17.3171 203 22.2372 203 29.443H185.997C186.419 33.2009 188.645 36.5326 192.983 36.5326C196.283 36.4552 198.164 34.4019 198.817 32.4261ZM186.151 26.4987H199.277C198.893 23.8644 196.821 20.2614 192.714 20.2614C188.607 20.2227 186.534 23.8256 186.151 26.4987Z" fill="#141312"/>
</g>
<rect x="211" y="1" width="210" height="46" rx="8" fill="#FCD8BC"/>
<path d="M224.36 31V17H229.14C230.78 17 232.127 17.2933 233.18 17.88C234.247 18.4533 235.033 19.2667 235.54 20.32C236.06 21.36 236.32 22.5867 236.32 24C236.32 25.4133 236.06 26.6467 235.54 27.7C235.033 28.74 234.247 29.5533 233.18 30.14C232.127 30.7133 230.78 31 229.14 31H224.36ZM226.92 28.8H229.02C230.193 28.8 231.12 28.6133 231.8 28.24C232.48 27.8533 232.967 27.3067 233.26 26.6C233.553 25.88 233.7 25.0133 233.7 24C233.7 23 233.553 22.14 233.26 21.42C232.967 20.7 232.48 20.1467 231.8 19.76C231.12 19.3733 230.193 19.18 229.02 19.18H226.92V28.8ZM246.239 31.24C244.839 31.24 243.612 30.9333 242.559 30.32C241.519 29.7067 240.699 28.86 240.099 27.78C239.512 26.6867 239.219 25.4267 239.219 24C239.219 22.5733 239.512 21.32 240.099 20.24C240.699 19.1467 241.519 18.2933 242.559 17.68C243.612 17.0667 244.839 16.76 246.239 16.76C247.625 16.76 248.845 17.0667 249.899 17.68C250.952 18.2933 251.772 19.1467 252.359 20.24C252.945 21.32 253.239 22.5733 253.239 24C253.239 25.4267 252.945 26.6867 252.359 27.78C251.772 28.86 250.952 29.7067 249.899 30.32C248.845 30.9333 247.625 31.24 246.239 31.24ZM246.239 28.94C247.572 28.94 248.632 28.5 249.419 27.62C250.219 26.74 250.619 25.5333 250.619 24C250.619 22.4667 250.219 21.26 249.419 20.38C248.632 19.5 247.572 19.06 246.239 19.06C244.905 19.06 243.839 19.5 243.039 20.38C242.239 21.26 241.839 22.4667 241.839 24C241.839 25.5333 242.239 26.74 243.039 27.62C243.839 28.5 244.905 28.94 246.239 28.94ZM262.939 31.24C261.526 31.24 260.312 30.94 259.299 30.34C258.286 29.7267 257.506 28.88 256.959 27.8C256.412 26.7067 256.139 25.4467 256.139 24.02C256.139 22.5933 256.412 21.3333 256.959 20.24C257.506 19.1467 258.286 18.2933 259.299 17.68C260.312 17.0667 261.526 16.76 262.939 16.76C264.619 16.76 265.992 17.18 267.059 18.02C268.139 18.8467 268.812 20.0133 269.079 21.52H266.259C266.086 20.76 265.712 20.1667 265.139 19.74C264.579 19.3 263.832 19.08 262.899 19.08C261.606 19.08 260.592 19.52 259.859 20.4C259.126 21.28 258.759 22.4867 258.759 24.02C258.759 25.5533 259.126 26.76 259.859 27.64C260.592 28.5067 261.606 28.94 262.899 28.94C263.832 28.94 264.579 28.74 265.139 28.34C265.712 27.9267 266.086 27.36 266.259 26.64H269.079C268.812 28.08 268.139 29.2067 267.059 30.02C265.992 30.8333 264.619 31.24 262.939 31.24ZM277.845 31.24C276.818 31.24 275.892 31.04 275.065 30.64C274.238 30.2267 273.578 29.6067 273.085 28.78C272.605 27.9533 272.365 26.9067 272.365 25.64V17H274.925V25.66C274.925 26.7533 275.185 27.5667 275.705 28.1C276.238 28.6333 276.972 28.9 277.905 28.9C278.825 28.9 279.552 28.6333 280.085 28.1C280.618 27.5667 280.885 26.7533 280.885 25.66V17H283.445V25.64C283.445 26.9067 283.192 27.9533 282.685 28.78C282.178 29.6067 281.498 30.2267 280.645 30.64C279.805 31.04 278.872 31.24 277.845 31.24ZM287.158 31V17H290.198L294.658 25.88L299.058 17H302.098V31H299.538V21.34L295.638 29H293.618L289.718 21.34V31H287.158ZM305.915 31V17H315.055V19.06H308.475V22.9H314.455V24.9H308.475V28.94H315.055V31H305.915ZM318.577 31V17H321.137L327.717 26.86V17H330.277V31H327.717L321.137 21.16V31H318.577ZM337.351 31V19.06H333.271V17H344.011V19.06H339.911V31H337.351ZM344.623 31L349.743 17H352.623L357.743 31H355.023L353.903 27.76H348.443L347.303 31H344.623ZM349.143 25.76H353.203L351.163 19.94L349.143 25.76ZM362.422 31V19.06H358.342V17H369.082V19.06H364.982V31H362.422ZM372.079 31V17H374.639V31H372.079ZM385.012 31.24C383.612 31.24 382.386 30.9333 381.332 30.32C380.292 29.7067 379.472 28.86 378.872 27.78C378.286 26.6867 377.992 25.4267 377.992 24C377.992 22.5733 378.286 21.32 378.872 20.24C379.472 19.1467 380.292 18.2933 381.332 17.68C382.386 17.0667 383.612 16.76 385.012 16.76C386.399 16.76 387.619 17.0667 388.672 17.68C389.726 18.2933 390.546 19.1467 391.132 20.24C391.719 21.32 392.012 22.5733 392.012 24C392.012 25.4267 391.719 26.6867 391.132 27.78C390.546 28.86 389.726 29.7067 388.672 30.32C387.619 30.9333 386.399 31.24 385.012 31.24ZM385.012 28.94C386.346 28.94 387.406 28.5 388.192 27.62C388.992 26.74 389.392 25.5333 389.392 24C389.392 22.4667 388.992 21.26 388.192 20.38C387.406 19.5 386.346 19.06 385.012 19.06C383.679 19.06 382.612 19.5 381.812 20.38C381.012 21.26 380.612 22.4667 380.612 24C380.612 25.5333 381.012 26.74 381.812 27.62C382.612 28.5 383.679 28.94 385.012 28.94ZM395.372 31V17H397.932L404.512 26.86V17H407.072V31H404.512L397.932 21.16V31H395.372Z" fill="#F57E21"/>
<defs>
<clipPath id="clip0_948_417">
<rect width="203" height="48" fill="white"/>
</clipPath>
</defs>
</svg>
