<svg width="398" height="60" viewBox="0 0 398 60" fill="none" xmlns="http://www.w3.org/2000/svg">
<path d="M151.595 17.3622C151.595 18.248 151.299 19.0748 150.827 19.7244L147.284 24.3897L134.469 4.48816H144.567L151.063 15.2952C151.418 15.9449 151.595 16.6535 151.595 17.3622Z" fill="#9668FC"/>
<path d="M177.166 48.3071H167.067L160.748 37.7362C160.335 37.0866 160.099 36.2598 160.099 35.4921C160.099 34.4882 160.394 33.5433 160.984 32.7756L164.351 28.3464L177.166 48.3071Z" fill="#6E3CDD"/>
<path d="M177.343 4.48816L144.508 48.3071H134.292L167.185 4.48816H177.343Z" fill="#8946FD"/>
<path d="M0 35.5512V13.2284H8.6811V34.0158C8.6811 39.0945 10.4528 41.9882 14.4094 41.9882C19.311 41.9882 22.0866 37.6772 22.0866 32.126V13.2284H30.7677V48.2481H22.9134V42.9922H21.5551C20.374 46.5945 17.3032 49.1339 11.811 49.1339C3.83858 49.193 0 43.819 0 35.5512Z" fill="#18161C"/>
<path d="M36.7915 48.3071V13.2284H44.7639V18.4843H46.1813C47.5396 14.8819 50.3151 12.3425 55.8663 12.3425C63.7206 12.3425 67.5592 17.6575 67.5592 25.9252V48.248H58.8781V27.5197C58.8781 22.3819 57.1065 19.5473 53.0907 19.5473C48.2482 19.5473 45.4726 23.7992 45.4726 29.4095V48.3071H36.7915Z" fill="#18161C"/>
<path d="M72.8149 4.48819C72.8149 1.83071 74.4685 0 77.5394 0C80.6693 0 82.3228 1.83071 82.3228 4.48819C82.3228 7.14567 80.6693 8.97638 77.5394 8.97638C74.4685 8.97638 72.8149 7.20472 72.8149 4.48819ZM73.2283 48.3071V13.2283H81.9094V48.248H73.2283V48.3071Z" fill="#18161C"/>
<path d="M89.9411 48.3072V19.4293H84.9805V13.2285H89.9411V11.0435C89.9411 5.25606 92.7167 1.41748 101.043 1.41748C102.106 1.41748 103.169 1.47654 104.114 1.59465V7.67732C103.524 7.55921 102.756 7.50016 102.106 7.50016C99.2718 7.50016 98.386 8.74032 98.386 11.3387V13.2285H104.114V19.4293H98.386V48.3072H89.9411Z" fill="#18161C"/>
<path d="M107.835 60.0001V59.8229C109.902 56.5749 112.323 51.9686 114.213 47.8347L101.988 13.5827V13.2284H110.551L114.921 25.5119C115.984 28.5237 117.047 31.5945 118.051 36.7914H119.469C120.591 31.5945 121.654 28.5827 122.658 25.5119L127.028 13.2284H135.118V13.5827L124.016 43.878C121.358 51.378 118.583 56.9292 116.752 59.941H107.835V60.0001Z" fill="#18161C"/>
<rect x="188" y="3" width="210" height="46" rx="8" fill="#ECE8FF"/>
<path d="M201.36 33V19H206.14C207.78 19 209.127 19.2933 210.18 19.88C211.247 20.4533 212.033 21.2667 212.54 22.32C213.06 23.36 213.32 24.5867 213.32 26C213.32 27.4133 213.06 28.6467 212.54 29.7C212.033 30.74 211.247 31.5533 210.18 32.14C209.127 32.7133 207.78 33 206.14 33H201.36ZM203.92 30.8H206.02C207.193 30.8 208.12 30.6133 208.8 30.24C209.48 29.8533 209.967 29.3067 210.26 28.6C210.553 27.88 210.7 27.0133 210.7 26C210.7 25 210.553 24.14 210.26 23.42C209.967 22.7 209.48 22.1467 208.8 21.76C208.12 21.3733 207.193 21.18 206.02 21.18H203.92V30.8ZM223.239 33.24C221.839 33.24 220.612 32.9333 219.559 32.32C218.519 31.7067 217.699 30.86 217.099 29.78C216.512 28.6867 216.219 27.4267 216.219 26C216.219 24.5733 216.512 23.32 217.099 22.24C217.699 21.1467 218.519 20.2933 219.559 19.68C220.612 19.0667 221.839 18.76 223.239 18.76C224.625 18.76 225.845 19.0667 226.899 19.68C227.952 20.2933 228.772 21.1467 229.359 22.24C229.945 23.32 230.239 24.5733 230.239 26C230.239 27.4267 229.945 28.6867 229.359 29.78C228.772 30.86 227.952 31.7067 226.899 32.32C225.845 32.9333 224.625 33.24 223.239 33.24ZM223.239 30.94C224.572 30.94 225.632 30.5 226.419 29.62C227.219 28.74 227.619 27.5333 227.619 26C227.619 24.4667 227.219 23.26 226.419 22.38C225.632 21.5 224.572 21.06 223.239 21.06C221.905 21.06 220.839 21.5 220.039 22.38C219.239 23.26 218.839 24.4667 218.839 26C218.839 27.5333 219.239 28.74 220.039 29.62C220.839 30.5 221.905 30.94 223.239 30.94ZM239.939 33.24C238.526 33.24 237.312 32.94 236.299 32.34C235.286 31.7267 234.506 30.88 233.959 29.8C233.412 28.7067 233.139 27.4467 233.139 26.02C233.139 24.5933 233.412 23.3333 233.959 22.24C234.506 21.1467 235.286 20.2933 236.299 19.68C237.312 19.0667 238.526 18.76 239.939 18.76C241.619 18.76 242.992 19.18 244.059 20.02C245.139 20.8467 245.812 22.0133 246.079 23.52H243.259C243.086 22.76 242.712 22.1667 242.139 21.74C241.579 21.3 240.832 21.08 239.899 21.08C238.606 21.08 237.592 21.52 236.859 22.4C236.126 23.28 235.759 24.4867 235.759 26.02C235.759 27.5533 236.126 28.76 236.859 29.64C237.592 30.5067 238.606 30.94 239.899 30.94C240.832 30.94 241.579 30.74 242.139 30.34C242.712 29.9267 243.086 29.36 243.259 28.64H246.079C245.812 30.08 245.139 31.2067 244.059 32.02C242.992 32.8333 241.619 33.24 239.939 33.24ZM254.845 33.24C253.818 33.24 252.892 33.04 252.065 32.64C251.238 32.2267 250.578 31.6067 250.085 30.78C249.605 29.9533 249.365 28.9067 249.365 27.64V19H251.925V27.66C251.925 28.7533 252.185 29.5667 252.705 30.1C253.238 30.6333 253.972 30.9 254.905 30.9C255.825 30.9 256.552 30.6333 257.085 30.1C257.618 29.5667 257.885 28.7533 257.885 27.66V19H260.445V27.64C260.445 28.9067 260.192 29.9533 259.685 30.78C259.178 31.6067 258.498 32.2267 257.645 32.64C256.805 33.04 255.872 33.24 254.845 33.24ZM264.158 33V19H267.198L271.658 27.88L276.058 19H279.098V33H276.538V23.34L272.638 31H270.618L266.718 23.34V33H264.158ZM282.915 33V19H292.055V21.06H285.475V24.9H291.455V26.9H285.475V30.94H292.055V33H282.915ZM295.577 33V19H298.137L304.717 28.86V19H307.277V33H304.717L298.137 23.16V33H295.577ZM314.351 33V21.06H310.271V19H321.011V21.06H316.911V33H314.351ZM321.623 33L326.743 19H329.623L334.743 33H332.023L330.903 29.76H325.443L324.303 33H321.623ZM326.143 27.76H330.203L328.163 21.94L326.143 27.76ZM339.422 33V21.06H335.342V19H346.082V21.06H341.982V33H339.422ZM349.079 33V19H351.639V33H349.079ZM362.012 33.24C360.612 33.24 359.386 32.9333 358.332 32.32C357.292 31.7067 356.472 30.86 355.872 29.78C355.286 28.6867 354.992 27.4267 354.992 26C354.992 24.5733 355.286 23.32 355.872 22.24C356.472 21.1467 357.292 20.2933 358.332 19.68C359.386 19.0667 360.612 18.76 362.012 18.76C363.399 18.76 364.619 19.0667 365.672 19.68C366.726 20.2933 367.546 21.1467 368.132 22.24C368.719 23.32 369.012 24.5733 369.012 26C369.012 27.4267 368.719 28.6867 368.132 29.78C367.546 30.86 366.726 31.7067 365.672 32.32C364.619 32.9333 363.399 33.24 362.012 33.24ZM362.012 30.94C363.346 30.94 364.406 30.5 365.192 29.62C365.992 28.74 366.392 27.5333 366.392 26C366.392 24.4667 365.992 23.26 365.192 22.38C364.406 21.5 363.346 21.06 362.012 21.06C360.679 21.06 359.612 21.5 358.812 22.38C358.012 23.26 357.612 24.4667 357.612 26C357.612 27.5333 358.012 28.74 358.812 29.62C359.612 30.5 360.679 30.94 362.012 30.94ZM372.372 33V19H374.932L381.512 28.86V19H384.072V33H381.512L374.932 23.16V33H372.372Z" fill="#8946FD"/>
</svg>
