<svg width="296" height="48" viewBox="0 0 296 48" fill="none" xmlns="http://www.w3.org/2000/svg">
<g clip-path="url(#clip0_13964_52377)">
<path d="M44.5994 14.4891L37.0382 1.27845C36.5776 0.503632 35.7332 0 34.8504 0H19.7665C18.8837 0 18.0393 0.503632 17.5787 1.27845L10.0176 14.4891C9.55701 15.2639 9.55701 16.2712 10.0176 17.046L17.5787 30.2179C18.0393 30.9927 18.8837 31.4964 19.7665 31.4964H29.9376C30.0911 31.4964 30.2063 31.5739 30.283 31.6901L30.4749 32.0775C30.5517 32.1937 30.5517 32.3487 30.4749 32.4649L24.2188 43.4286C24.142 43.5448 24.0268 43.6223 23.8733 43.6223H11.3609C11.2074 43.6223 11.0923 43.5448 11.0155 43.4286L4.75931 32.4649C4.68255 32.3487 4.68255 32.1937 4.75931 32.0775L9.59539 23.6707C9.67215 23.5545 9.67215 23.3995 9.59539 23.2833L7.59955 19.7966C7.52278 19.6416 7.36926 19.5642 7.17735 19.5642C7.02382 19.5642 6.8703 19.6416 6.75515 19.7966L0.345434 30.9927C-0.115145 31.7676 -0.115145 32.7748 0.345434 33.5496L7.9066 46.7603C8.36718 47.5351 9.21157 48.0387 10.0943 48.0387H25.1783C26.0611 48.0387 26.9055 47.5351 27.366 46.7603L34.9272 33.5496C35.3878 32.7748 35.3878 31.7676 34.9272 30.9927L27.366 17.7821C26.9055 17.0073 26.0611 16.5036 25.1783 16.5036H14.9688C14.8153 16.5036 14.7001 16.4261 14.6234 16.3099L14.4315 15.9225C14.3547 15.8063 14.3547 15.6513 14.4315 15.5351L20.726 4.61017C20.8028 4.49395 20.9179 4.41646 21.0715 4.41646H33.6222C33.7758 4.41646 33.8909 4.49395 33.9677 4.61017L40.2239 15.5739C40.3006 15.6901 40.3006 15.845 40.2239 15.9613L36.0787 23.1283C36.0019 23.2446 36.0019 23.3995 36.0787 23.5157L38.0745 27.0024C38.1513 27.1574 38.3048 27.2349 38.4967 27.2349C38.6502 27.2349 38.8037 27.1574 38.9189 27.0024L44.5994 17.046C45.0599 16.2324 45.0599 15.2639 44.5994 14.4891ZM17.9626 20.9201H23.9117C24.0652 20.9201 24.1804 20.9976 24.2571 21.1138L27.3277 26.4988C27.4812 26.77 27.2893 27.0799 26.9822 27.0799H21.0331C20.8796 27.0799 20.7644 27.0024 20.6877 26.8862L17.6171 21.5012C17.4636 21.23 17.6555 20.9201 17.9626 20.9201Z" fill="#F57E21"/>
<path d="M59.1846 8.48425H63.5217V20.3777H63.5984C64.9802 18.4407 67.3982 16.891 70.5455 16.891C76.3027 16.891 80.5247 21.4625 80.5247 28.2421C80.5247 35.0218 76.3027 39.5545 70.5455 39.5545C67.4366 39.5545 65.0186 38.0048 63.5984 36.0678H63.5217V39.1283H59.1846V8.48425ZM63.4449 28.2421C63.4449 32.3874 65.9397 35.4479 69.7011 35.4479C73.309 35.4479 75.9573 32.5036 75.9573 28.2421C75.9573 23.9419 73.309 21.0363 69.7011 21.0363C65.9397 21.0363 63.4449 24.0968 63.4449 28.2421Z" fill="white"/>
<path d="M82.5977 11.506C82.5977 9.84019 83.9026 8.48425 85.5914 8.48425C87.2802 8.48425 88.5852 9.84019 88.5852 11.506C88.5852 13.2106 87.2802 14.5278 85.5914 14.5278C83.9026 14.5278 82.5977 13.2106 82.5977 11.506ZM87.7792 17.3172V39.1283H83.442V17.3172H87.7792Z" fill="white"/>
<path d="M96.2609 17.3172V20.1065H96.3377C97.5659 18.2857 100.022 16.9297 102.671 16.9297C106.777 16.9297 110.117 19.7191 110.117 25.8014V39.1283H105.78V26.4213C105.78 22.5859 104.129 20.9588 101.634 20.9588C98.4487 20.9588 96.2609 23.3995 96.2609 26.7699V39.1283H91.9238V17.3172H96.2609Z" fill="white"/>
<path d="M134.067 39.1283H129.73V36.339H129.653C128.194 38.1211 125.853 39.5157 122.706 39.5157C117.025 39.5157 112.727 35.0218 112.727 28.2034C112.727 21.385 116.987 16.8523 122.706 16.8523C125.815 16.8523 128.156 18.247 129.653 20.029H129.73V8.48425H134.067V39.1283ZM117.256 28.2421C117.256 32.5036 119.904 35.4479 123.512 35.4479C127.273 35.4479 129.768 32.3874 129.768 28.2421C129.768 24.0968 127.273 21.0363 123.512 21.0363C119.904 21.0363 117.256 23.9419 117.256 28.2421Z" fill="white"/>
<path d="M138.136 8.48425H141.398V20.8813H141.475C143.202 18.4019 145.85 17.1622 148.652 17.1622C154.525 17.1622 158.44 21.6174 158.44 28.3196C158.44 35.0218 154.525 39.5157 148.652 39.5157C145.85 39.5157 143.202 38.276 141.475 35.7966H141.398V39.0896H138.136V8.48425ZM141.321 28.3583C141.321 32.6973 143.624 36.3777 148.153 36.3777C152.26 36.3777 154.985 33.1622 154.985 28.3583C154.985 23.5545 152.222 20.339 148.153 20.339C143.624 20.339 141.321 24.0581 141.321 28.3583Z" fill="white"/>
<path d="M176.632 32.4262L180.087 32.9298C179.051 36.9588 175.558 39.5545 170.76 39.5545C164.389 39.5545 160.32 34.6731 160.32 28.3971C160.32 22.1211 164.466 17.1235 170.645 17.2397C177.362 17.3172 180.816 22.2373 180.816 29.4431H163.813C164.235 33.201 166.461 36.5327 170.798 36.5327C174.061 36.4552 175.98 34.4019 176.632 32.4262ZM163.928 26.4988H177.055C176.671 23.8644 174.598 20.2615 170.491 20.2615C166.423 20.2228 164.312 23.8257 163.928 26.4988Z" fill="white"/>
<path d="M198.817 32.4262L202.271 32.9298C201.235 36.9588 197.742 39.5545 192.945 39.5545C186.573 39.5545 182.505 34.6731 182.505 28.3971C182.505 22.1211 186.65 17.1235 192.83 17.2397C199.546 17.3172 203.001 22.2373 203.001 29.4431H185.998C186.42 33.201 188.646 36.5327 192.983 36.5327C196.284 36.4552 198.165 34.4019 198.817 32.4262ZM186.151 26.4988H199.278C198.894 23.8644 196.821 20.2615 192.714 20.2615C188.608 20.2228 186.535 23.8257 186.151 26.4988Z" fill="white"/>
</g>
<path d="M287.355 40.48C285.915 40.48 284.555 40.2 283.275 39.64C281.995 39.0534 280.955 38.2534 280.155 37.24C279.382 36.2267 278.995 35.0667 278.995 33.76H282.595C282.595 34.5867 282.835 35.28 283.315 35.84C283.795 36.3734 284.408 36.7734 285.155 37.04C285.902 37.3067 286.662 37.44 287.435 37.44C288.928 37.44 290.088 37.2 290.915 36.72C291.768 36.24 292.195 35.5067 292.195 34.52C292.195 33.72 291.888 33.12 291.275 32.72C290.662 32.32 289.862 32.0267 288.875 31.84C287.915 31.6267 286.888 31.4267 285.795 31.24C284.728 31.0534 283.702 30.7734 282.715 30.4C281.755 30.0267 280.968 29.4667 280.355 28.72C279.742 27.9734 279.435 26.9334 279.435 25.6C279.435 24.6134 279.702 23.6667 280.235 22.76C280.795 21.8267 281.635 21.0534 282.755 20.44C283.875 19.8267 285.302 19.52 287.035 19.52C288.555 19.52 289.835 19.7067 290.875 20.08C291.915 20.4267 292.742 20.8934 293.355 21.48C293.995 22.0667 294.448 22.7067 294.715 23.4C295.008 24.0667 295.155 24.7067 295.155 25.32H291.715C291.715 24.6534 291.328 24.0267 290.555 23.44C289.782 22.8534 288.595 22.56 286.995 22.56C285.528 22.56 284.462 22.8267 283.795 23.36C283.128 23.8667 282.795 24.5467 282.795 25.4C282.795 26.04 283.022 26.5467 283.475 26.92C283.955 27.2667 284.568 27.5467 285.315 27.76C286.062 27.9734 286.888 28.16 287.795 28.32C288.728 28.48 289.648 28.68 290.555 28.92C291.462 29.16 292.288 29.4934 293.035 29.92C293.782 30.3467 294.382 30.92 294.835 31.64C295.315 32.3334 295.555 33.24 295.555 34.36C295.555 35.4267 295.275 36.4267 294.715 37.36C294.182 38.2934 293.315 39.0534 292.115 39.64C290.915 40.2 289.328 40.48 287.355 40.48Z" fill="#BCBBB5"/>
<path d="M275.769 24.76L272.729 25.96C272.302 24.9467 271.662 24.1334 270.809 23.52C269.982 22.88 268.969 22.56 267.769 22.56C265.662 22.56 264.116 23.2534 263.129 24.64C262.169 26.0267 261.689 27.8 261.689 29.96C261.689 32.1734 262.182 33.9867 263.169 35.4C264.156 36.7867 265.689 37.48 267.769 37.48C268.969 37.48 269.982 37.16 270.809 36.52C271.662 35.8534 272.302 35.0134 272.729 34L275.769 35.2C275.076 36.8534 274.089 38.16 272.809 39.12C271.529 40.0534 269.876 40.52 267.849 40.52C266.169 40.52 264.596 40.1334 263.129 39.36C261.689 38.5867 260.529 37.4267 259.649 35.88C258.769 34.3334 258.329 32.4 258.329 30.08C258.329 27.7334 258.769 25.7867 259.649 24.24C260.529 22.6667 261.689 21.4934 263.129 20.72C264.596 19.92 266.169 19.52 267.849 19.52C269.609 19.52 271.196 19.9867 272.609 20.92C274.022 21.8267 275.076 23.1067 275.769 24.76Z" fill="#BCBBB5"/>
<path d="M244.867 40.48C243.134 40.48 241.56 40.0934 240.147 39.32C238.734 38.52 237.6 37.3467 236.747 35.8C235.92 34.2267 235.507 32.2934 235.507 30C235.507 28.2667 235.76 26.76 236.267 25.48C236.774 24.1734 237.454 23.08 238.307 22.2C239.187 21.2934 240.187 20.6267 241.307 20.2C242.454 19.7467 243.64 19.52 244.867 19.52C246.6 19.52 248.174 19.92 249.587 20.72C251 21.4934 252.12 22.6667 252.947 24.24C253.8 25.7867 254.227 27.7067 254.227 30C254.227 31.7067 253.974 33.2134 253.467 34.52C252.96 35.8267 252.267 36.9334 251.387 37.84C250.534 38.72 249.547 39.3867 248.427 39.84C247.307 40.2667 246.12 40.48 244.867 40.48ZM244.867 37.44C246.84 37.44 248.334 36.7734 249.347 35.44C250.36 34.1067 250.867 32.2934 250.867 30C250.867 27.7067 250.36 25.8934 249.347 24.56C248.334 23.2267 246.84 22.56 244.867 22.56C242.947 22.56 241.467 23.2267 240.427 24.56C239.387 25.8934 238.867 27.7067 238.867 30C238.867 32.2934 239.374 34.1067 240.387 35.44C241.427 36.7734 242.92 37.44 244.867 37.44Z" fill="#BCBBB5"/>
<path d="M211 40V12H218.8C221.893 12 224.44 12.5867 226.44 13.76C228.44 14.9333 229.92 16.5733 230.88 18.68C231.867 20.76 232.36 23.2133 232.36 26.04C232.36 28.8133 231.867 31.2533 230.88 33.36C229.92 35.44 228.44 37.0667 226.44 38.24C224.44 39.4133 221.893 40 218.8 40H211ZM214.52 36.8H218.92C221.107 36.8 222.92 36.3467 224.36 35.44C225.8 34.5067 226.88 33.2267 227.6 31.6C228.32 29.9733 228.68 28.1067 228.68 26C228.68 23.8933 228.32 22.04 227.6 20.44C226.88 18.8133 225.8 17.5333 224.36 16.6C222.92 15.6667 221.107 15.2 218.92 15.2H214.52V36.8Z" fill="#BCBBB5"/>
<defs>
<clipPath id="clip0_13964_52377">
<rect width="203" height="48" fill="white"/>
</clipPath>
</defs>
</svg>
